<?xml version="1.0" encoding="UTF-8" standalone="no"?>
<!DOCTYPE svg PUBLIC "-//W3C//DTD SVG 1.1//EN" "http://www.w3.org/Graphics/SVG/1.1/DTD/svg11.dtd">
<svg width="100%" height="100%" viewBox="0 0 235 221" version="1.1" xmlns="http://www.w3.org/2000/svg" xmlns:xlink="http://www.w3.org/1999/xlink" xml:space="preserve" xmlns:serif="http://www.serif.com/" style="fill-rule:evenodd;clip-rule:evenodd;stroke-linejoin:round;stroke-miterlimit:2;">
    <g transform="matrix(1,0,0,1,-790.882,-347.004)">
        <g transform="matrix(0.792747,0,0,0.750218,841.711,370.758)">
            <path d="M231.739,116.029C231.739,116.029 220.579,138.072 188.188,141.56C157.692,144.843 116.322,116.935 94.525,113.618C55.006,107.603 32.485,122.435 31.387,121.934C44.248,113.646 53.766,103.206 90.332,103.993C120.519,104.643 153.981,125.521 167.583,129.71C208.32,142.254 231.739,116.029 231.739,116.029Z" style="fill:rgb(2,0,0);fill-rule:nonzero;"/>
        </g>
        <path d="M1001.6,495.188C986.258,537.138 946.356,567.074 899.602,567.074C839.598,567.074 790.882,517.769 790.882,457.039C790.882,396.309 839.598,347.004 899.602,347.004C902.608,347.004 905.586,347.128 908.526,347.37C908.246,347.368 907.96,347.366 907.674,347.366C850.442,347.366 803.977,393.879 803.977,451.169C803.977,508.459 850.442,554.971 907.674,554.971C949.19,554.971 985.041,530.496 1001.6,495.188Z" style="fill:rgb(8,6,5);"/>
        <g transform="matrix(0.00686608,-0.999976,0.999976,0.00686608,486.365,1265.89)">
            <path d="M889.134,380.267C885.831,390.557 880.552,394.36 880.552,394.36C880.552,394.36 887.239,399.99 888.425,406.46C890.645,402.481 886.515,394.324 886.515,394.324C886.515,394.324 892.518,387.451 889.134,380.267Z" style="fill:rgb(8,6,5);"/>
        </g>
        <g transform="matrix(0.00686608,-0.999976,0.999976,0.00686608,525.54,1283.95)">
            <path d="M889.134,380.267C885.831,390.557 880.552,394.36 880.552,394.36C880.552,394.36 887.239,399.99 888.425,406.46C890.645,402.481 886.515,394.324 886.515,394.324C886.515,394.324 892.518,387.451 889.134,380.267Z" style="fill:rgb(8,6,5);"/>
        </g>
        <g transform="matrix(0.00686608,-0.999976,0.999976,0.00686608,520.089,1256.01)">
            <path d="M889.134,380.267C885.831,390.557 880.552,394.36 880.552,394.36C880.552,394.36 887.239,399.99 888.425,406.46C890.645,402.481 886.515,394.324 886.515,394.324C886.515,394.324 892.518,387.451 889.134,380.267Z" style="fill:rgb(8,6,5);"/>
        </g>
    </g>
</svg>
