<?xml version="1.0" encoding="UTF-8" standalone="no"?>
<!DOCTYPE svg PUBLIC "-//W3C//DTD SVG 1.1//EN" "http://www.w3.org/Graphics/SVG/1.1/DTD/svg11.dtd">
<svg width="100%" height="100%" viewBox="0 0 1001 197" version="1.1" xmlns="http://www.w3.org/2000/svg" xmlns:xlink="http://www.w3.org/1999/xlink" xml:space="preserve" xmlns:serif="http://www.serif.com/" style="fill-rule:evenodd;clip-rule:evenodd;stroke-linejoin:round;stroke-miterlimit:2;">
    <g transform="matrix(1,0,0,1,-2581.61,-97.9892)">
        <g transform="matrix(1,0,0,1,1629.98,-115.248)">
            <text x="942.559px" y="323.398px" style="font-family:'TrajanusRoman', 'Trajanus Roman', serif;font-size:144px;fill:rgb(35,31,32);">C<tspan x="1062.08px 1141.71px 1202.34px 1259.21px 1338.13px 1398.75px 1490.91px 1559.17px 1670.62px 1759.47px 1828.59px 1902.46px " y="323.398px 323.398px 323.398px 323.398px 323.398px 323.398px 323.398px 323.398px 323.398px 323.398px 323.398px 323.398px ">rescent Lake</tspan></text>
        </g>
        <g transform="matrix(1,0,0,1,1629.98,30.7232)">
            <text x="1139.26px" y="262.767px" style="font-family:'TrajanusRoman', 'Trajanus Roman', serif;font-size:80px;fill:rgb(35,31,32);">b<tspan x="1201.82px 1251.5px 1314.06px 1371.65px 1430.21px 1517.02px 1585.74px 1649.02px 1729.5px " y="262.767px 262.767px 262.767px 262.767px 262.767px 262.767px 262.767px 262.767px 262.767px ">ible camp</tspan></text>
        </g>
    </g>
</svg>
