<?xml version="1.0" encoding="UTF-8" standalone="no"?>
<!DOCTYPE svg PUBLIC "-//W3C//DTD SVG 1.1//EN" "http://www.w3.org/Graphics/SVG/1.1/DTD/svg11.dtd">
<svg width="100%" height="100%" viewBox="0 0 633 894" version="1.1" xmlns="http://www.w3.org/2000/svg" xmlns:xlink="http://www.w3.org/1999/xlink" xml:space="preserve" xmlns:serif="http://www.serif.com/" style="fill-rule:evenodd;clip-rule:evenodd;stroke-linejoin:round;stroke-miterlimit:1.5;">
    <g transform="matrix(1,0,0,1,-682,-1)">
        <g id="Svg" transform="matrix(0.0345113,0,0,0.0732239,795.332,-109.823)">
            <rect x="-3283.91" y="1513.48" width="18341.8" height="12209.1" style="fill:none;"/>
            <g id="Buildings">
                <g>
                    <g transform="matrix(28.976,0,0,13.6567,-23045.6,1499.82)">
                        <path d="M863,260L857,253L863,248L861,242L855,240L849,245L843,239L836,241L834,248L854,268L861,266L863,260Z" style="fill:none;stroke:black;stroke-width:2.08px;"/>
                        <path d="M863,260L857,253L863,248L861,242L855,240L849,245L843,239L836,241L834,248L854,268L861,266L863,260Z" style="fill:rgb(136,46,45);"/>
                    </g>
                    <g transform="matrix(28.976,0,0,13.6567,-23045.6,1499.82)">
                        <path d="M861,266C859.949,264.949 836.1,241.1 836,241L848.04,253.04L861,242L848.04,253.04" style="fill:none;stroke:black;stroke-width:0.95px;"/>
                    </g>
                </g>
                <g transform="matrix(0.431978,0.425069,-1.91356,0.431978,16055,2507.34)">
                    <g transform="matrix(28.976,4.44089e-15,1.77636e-14,13.6567,-23095.3,1414.65)">
                        <path d="M826.346,247.195L840.156,232.652L836.173,228.785L822.591,242.87L826.346,247.195Z" style="fill:none;stroke:rgb(140,140,140);stroke-width:2.08px;"/>
                        <path d="M826.346,247.195L840.156,232.652L836.173,228.785L822.591,242.87L826.346,247.195Z" style="fill:rgb(118,80,63);"/>
                    </g>
                    <g transform="matrix(28.976,0,0,13.6567,-23045.6,1499.82)">
                        <path d="M843.906,267.716L863,248L861,242L855,240L849,245L843,239L848.582,233.25L847.135,227.013L840.389,224.891L822.23,243.624L823.23,250.216L830.136,252.944L835.178,247.869L840.661,253.728L836.46,258.478L836.759,265.462L843.906,267.716Z" style="fill:none;stroke:black;stroke-width:2.08px;"/>
                        <path d="M843.906,267.716L863,248L861,242L855,240L849,245L843,239L848.582,233.25L847.135,227.013L840.389,224.891L822.23,243.624L823.23,250.216L830.136,252.944L835.178,247.869L840.661,253.728L836.46,258.478L836.759,265.462L843.906,267.716Z" style="fill:rgb(136,46,45);"/>
                    </g>
                    <g transform="matrix(12.517,-12.3168,26.133,5.89941,-18818.5,16185.2)">
                        <path d="M1060.47,284.979L1028.84,273.251L1044.16,278.93" style="fill:none;stroke:black;stroke-width:0.83px;"/>
                    </g>
                    <g transform="matrix(12.517,-12.3168,26.133,5.89941,-18818.5,16185.2)">
                        <path d="M1068,266L1036.75,254.464" style="fill:none;stroke:black;stroke-width:0.83px;"/>
                    </g>
                    <g transform="matrix(12.517,-12.3168,26.133,5.89941,-18818.5,16185.2)">
                        <path d="M1044.16,278.93L1053.2,275.272" style="fill:none;stroke:black;stroke-width:0.83px;"/>
                    </g>
                    <g transform="matrix(12.517,-12.3168,26.133,5.89941,-18818.5,16185.2)">
                        <path d="M1051.63,259.958L1044.16,278.93" style="fill:none;stroke:black;stroke-width:0.83px;"/>
                    </g>
                    <g transform="matrix(12.517,-12.3168,26.133,5.89941,-18818.5,16185.2)">
                        <path d="M1051.63,259.958L1055.9,268.332" style="fill:none;stroke:black;stroke-width:0.83px;"/>
                    </g>
                    <g transform="matrix(12.517,-12.3168,26.133,5.89941,-18818.5,16185.2)">
                        <path d="M1051.63,259.958L1043.69,264.412" style="fill:none;stroke:black;stroke-width:0.83px;"/>
                    </g>
                    <g transform="matrix(12.517,-12.3168,26.133,5.89941,-18818.5,16185.2)">
                        <path d="M1044.16,278.93L1040.74,270.967" style="fill:none;stroke:black;stroke-width:0.83px;"/>
                    </g>
                </g>
                <g transform="matrix(0.0583569,0.470509,-2.11812,0.0583569,11660.6,3391.51)">
                    <g transform="matrix(28.976,0,0,13.6567,-23045.6,1499.82)">
                        <path d="M860.324,260.356L861.731,253.426L848.28,243.625L842.115,246.269L841.706,253.257L855.099,264.057L860.324,260.356Z" style="fill:none;stroke:black;stroke-width:2.08px;"/>
                        <path d="M860.324,260.356L861.731,253.426L848.28,243.625L842.115,246.269L841.706,253.257L855.099,264.057L860.324,260.356Z" style="fill:rgb(136,46,45);"/>
                    </g>
                    <g transform="matrix(1.69095,-13.6335,28.9266,0.796965,-6032.16,16219.2)">
                        <path d="M832,225L845,206" style="fill:none;stroke:black;stroke-width:0.95px;"/>
                    </g>
                </g>
                <g transform="matrix(-0.829743,0.263061,-1.18424,-0.829743,7727.63,9750.78)">
                    <g transform="matrix(28.976,0,0,13.6567,-23045.6,1499.82)">
                        <path d="M860.324,260.356L861.731,253.426L848.28,243.625L842.115,246.269L841.706,253.257L855.099,264.057L860.324,260.356Z" style="fill:none;stroke:black;stroke-width:2.08px;"/>
                        <path d="M860.324,260.356L861.731,253.426L848.28,243.625L842.115,246.269L841.706,253.257L855.099,264.057L860.324,260.356Z" style="fill:rgb(136,46,45);"/>
                    </g>
                    <g transform="matrix(1.69095,-13.6335,28.9266,0.796965,-6032.16,16219.2)">
                        <path d="M832,225L845,206" style="fill:none;stroke:black;stroke-width:0.95px;"/>
                    </g>
                    <g transform="matrix(-24.8211,5.27949,-10.6176,-11.0885,36263.3,1967.41)">
                        <path d="M1244.46,322.881C1243.1,322.581 1197.86,348.244 1197.02,349.963C1195.98,352.098 1205.2,368.847 1206.38,369.184C1208.42,369.772 1252.72,340.995 1253.39,339.703C1253.77,338.986 1245.55,323.118 1244.46,322.881Z" style="fill:rgb(83,109,70);fill-opacity:0.5;"/>
                    </g>
                </g>
                <g transform="matrix(-0.99909,-0.0201004,0.0904875,-0.99909,3778.9,9455.48)">
                    <g transform="matrix(28.976,0,0,13.6567,-23045.6,1499.82)">
                        <path d="M860.324,260.356L861.708,255.223L847.209,243.831L842.115,246.269L840.513,251.123L855.012,262.515L860.324,260.356Z" style="fill:none;stroke:black;stroke-width:2.08px;"/>
                        <path d="M860.324,260.356L861.708,255.223L847.209,243.831L842.115,246.269L840.513,251.123L855.012,262.515L860.324,260.356Z" style="fill:rgb(136,46,45);"/>
                    </g>
                    <g transform="matrix(1.69095,-13.6335,28.9266,0.796965,-6032.16,16219.2)">
                        <path d="M832,225L845,206" style="fill:none;stroke:black;stroke-width:0.95px;"/>
                    </g>
                </g>
                <g transform="matrix(-1.43601,0.28669,-1.29061,-1.43601,6118.86,12758.2)">
                    <g transform="matrix(11.6071,1.11022e-15,-4.44089e-15,5.34702,-8351.29,3699.61)">
                        <path d="M859.601,270.505L867.232,263.071L843.774,243.357L836.421,251.553L859.601,270.505Z" style="fill:none;stroke:rgb(140,140,140);stroke-width:3.37px;"/>
                        <path d="M859.601,270.505L867.232,263.071L843.774,243.357L836.421,251.553L859.601,270.505Z" style="fill:rgb(118,80,63);"/>
                    </g>
                    <g transform="matrix(15.6452,0,-3.55271e-15,7.11485,-11788.1,3095.26)">
                        <path d="M848.49,264.285L858.41,252.463L846.589,243.151L840.302,247.175L837.223,255.344L848.49,264.285Z" style="fill:none;stroke:black;stroke-width:2.52px;"/>
                        <path d="M848.49,264.285L858.41,252.463L846.589,243.151L840.302,247.175L837.223,255.344L848.49,264.285Z" style="fill:rgb(136,46,45);"/>
                    </g>
                    <g transform="matrix(28.976,0,-1.5162e-15,13.6567,-23016,1509.52)">
                        <path d="M860.324,260.356L861.708,255.223L850.717,246.707L845.623,249.146L842.857,255.592L853.359,264.391L860.324,260.356Z" style="fill:none;stroke:black;stroke-width:1.34px;"/>
                        <path d="M860.324,260.356L861.708,255.223L850.717,246.707L845.623,249.146L842.857,255.592L853.359,264.391L860.324,260.356Z" style="fill:rgb(136,46,45);"/>
                    </g>
                    <g transform="matrix(1.69095,-13.6335,28.9266,0.796965,-6032.16,16219.2)">
                        <path d="M831.21,226.241L841.834,210.308" style="fill:none;stroke:black;stroke-width:0.61px;"/>
                    </g>
                    <g transform="matrix(-16.3714,-3.1207,7.47749,-7.97114,10633.7,9840.33)">
                        <path d="M723.808,342.735L712.975,340.153" style="fill:none;stroke:black;stroke-width:0.87px;"/>
                    </g>
                </g>
                <g transform="matrix(-0.692067,-0.37903,1.70631,-0.692067,-5596.97,15187.5)">
                    <g transform="matrix(28.976,0,-6.06481e-15,13.6567,-23041.8,1514.1)">
                        <path d="M858.98,261.013L861.708,255.223L848.162,243.81L841.872,246.596L839.348,252.715L853.359,264.391L858.98,261.013Z" style="fill:none;stroke:black;stroke-width:1.96px;"/>
                        <path d="M858.98,261.013L861.708,255.223L848.162,243.81L841.872,246.596L839.348,252.715L853.359,264.391L858.98,261.013Z" style="fill:rgb(136,46,45);"/>
                    </g>
                    <g transform="matrix(1.69095,-13.6335,28.9266,0.796965,-6022.86,16231.9)">
                        <path d="M830.933,223.829L844.645,205.393" style="fill:none;stroke:black;stroke-width:0.89px;"/>
                    </g>
                    <g transform="matrix(0.354338,-9.62341,20.2327,-0.373876,-3793.96,13008.8)">
                        <path d="M858.831,261.222L861.708,255.223L848.162,243.81L842.115,246.269L839.348,252.715L853.359,264.391L858.831,261.222Z" style="fill:none;stroke:black;stroke-width:2.72px;"/>
                        <path d="M858.831,261.222L861.708,255.223L848.162,243.81L842.115,246.269L839.348,252.715L853.359,264.391L858.831,261.222Z" style="fill:rgb(136,46,45);"/>
                    </g>
                    <g transform="matrix(-20.1775,-0.188353,1.53445,-9.62882,18221,6955.39)">
                        <path d="M830.933,223.829L844.652,205.288" style="fill:none;stroke:black;stroke-width:1.31px;"/>
                    </g>
                </g>
                <g transform="matrix(-0.500332,-0.352943,1.58887,-0.500332,-4792.03,15829.7)">
                    <g transform="matrix(28.976,0,-6.06481e-15,13.6567,-23041.8,1514.1)">
                        <path d="M858.98,261.013L861.708,255.223L848.391,242.384L843.268,246.279L839.348,252.715L853.359,264.391L858.98,261.013Z" style="fill:none;stroke:black;stroke-width:2.31px;"/>
                        <path d="M858.98,261.013L861.708,255.223L848.391,242.384L843.268,246.279L839.348,252.715L853.359,264.391L858.98,261.013Z" style="fill:rgb(136,46,45);"/>
                    </g>
                    <g transform="matrix(1.69095,-13.6335,28.9266,0.796965,-6022.86,16231.9)">
                        <path d="M830.933,223.829L845.001,206.299" style="fill:none;stroke:black;stroke-width:1.05px;"/>
                    </g>
                    <g transform="matrix(0.354338,-9.62341,20.2327,-0.373876,-3793.96,13008.8)">
                        <path d="M853.895,257.022L856.772,251.023L848.162,243.81L842.676,247.325L839.348,252.715L848.423,260.192L853.895,257.022Z" style="fill:none;stroke:black;stroke-width:3.21px;"/>
                        <path d="M853.895,257.022L856.772,251.023L848.162,243.81L842.676,247.325L839.348,252.715L848.423,260.192L853.895,257.022Z" style="fill:rgb(136,46,45);"/>
                    </g>
                    <g transform="matrix(-20.1775,-0.188353,1.53445,-9.62882,18221,6955.39)">
                        <path d="M834.361,218.988L844.652,205.288" style="fill:none;stroke:black;stroke-width:1.54px;"/>
                    </g>
                </g>
                <g transform="matrix(-0.0848796,-0.497024,2.23749,-0.0848796,-7032.21,6389.23)">
                    <g transform="matrix(28.976,0,0,13.6567,-23045.6,1499.82)">
                        <path d="M862.184,261.134L862.166,256.654L845.391,243.402L842.52,246.302L840.464,250.962L843.2,253.259L839.484,257.502L846.234,263.853L852.212,267.046L855.127,262.187L857.716,263.786L862.184,261.134Z" style="fill:none;stroke:black;stroke-width:1.97px;"/>
                        <path d="M862.184,261.134L862.166,256.654L845.391,243.402L842.52,246.302L840.464,250.962L843.2,253.259L839.484,257.502L846.234,263.853L852.212,267.046L855.127,262.187L857.716,263.786L862.184,261.134Z" style="fill:rgb(136,46,45);"/>
                    </g>
                    <g transform="matrix(1.69095,-13.6335,28.9266,0.796965,-6032.16,16219.2)">
                        <path d="M831.282,226.937L845,206" style="fill:none;stroke:black;stroke-width:0.89px;"/>
                    </g>
                    <g transform="matrix(-2.34863,13.6322,-28.894,-1.0864,11708.9,-7409.84)">
                        <path d="M929.806,272.202L940.413,277.911" style="fill:none;stroke:black;stroke-width:0.79px;"/>
                    </g>
                    <g transform="matrix(-2.34863,13.6322,-28.894,-1.0864,11708.9,-7409.84)">
                        <path d="M929.806,272.202L929.914,282.418" style="fill:none;stroke:black;stroke-width:0.79px;"/>
                    </g>
                    <g transform="matrix(-2.34863,13.6322,-28.894,-1.0864,11708.9,-7409.84)">
                        <path d="M929.806,272.202L938.503,268.813" style="fill:none;stroke:black;stroke-width:0.79px;"/>
                    </g>
                </g>
                <g transform="matrix(1.05571,0.0325155,-0.146377,1.05571,2583.52,-2310.85)">
                    <g transform="matrix(28.976,0,0,13.6567,-23045.6,1499.82)">
                        <path d="M862.184,261.134L864.244,255.078L847.144,242.851L842.52,246.302L840.464,250.962L843.2,253.259L839.602,258.476L843.911,261.687L850.458,266.069L855.127,262.187L857.716,263.786L862.184,261.134Z" style="fill:none;stroke:black;stroke-width:1.97px;"/>
                        <path d="M862.184,261.134L864.244,255.078L847.144,242.851L842.52,246.302L840.464,250.962L843.2,253.259L839.602,258.476L843.911,261.687L850.458,266.069L855.127,262.187L857.716,263.786L862.184,261.134Z" style="fill:rgb(136,46,45);"/>
                    </g>
                    <g transform="matrix(1.69095,-13.6335,28.9266,0.796965,-6032.16,16219.2)">
                        <path d="M831.282,226.937L845,206" style="fill:none;stroke:black;stroke-width:0.89px;"/>
                    </g>
                    <g transform="matrix(-2.34863,13.6322,-28.894,-1.0864,11708.9,-7409.84)">
                        <path d="M929.366,272.954L938.749,280.631" style="fill:none;stroke:black;stroke-width:0.79px;"/>
                    </g>
                    <g transform="matrix(-2.34863,13.6322,-28.894,-1.0864,11708.9,-7409.84)">
                        <path d="M929.232,272.974L929.914,282.418" style="fill:none;stroke:black;stroke-width:0.79px;"/>
                    </g>
                    <g transform="matrix(-2.34863,13.6322,-28.894,-1.0864,11708.9,-7409.84)">
                        <path d="M929.232,272.974L938.503,268.813" style="fill:none;stroke:black;stroke-width:0.79px;"/>
                    </g>
                </g>
                <g transform="matrix(-0.99909,-0.0201004,0.0904875,-0.99909,4180.35,9965.28)">
                    <g transform="matrix(23.3406,-8.09264,17.1705,11.0007,-22596.3,9059.99)">
                        <path d="M860.324,260.356L863.507,251.903L847.816,240.68L842.115,246.269L837.499,254.165L853.389,265.413L860.324,260.356Z" style="fill:none;stroke:black;stroke-width:2.08px;"/>
                        <path d="M860.324,260.356L863.507,251.903L847.816,240.68L842.115,246.269L837.499,254.165L853.389,265.413L860.324,260.356Z" style="fill:rgb(136,46,45);"/>
                    </g>
                    <g transform="matrix(1.69095,-13.6335,28.9266,0.796965,-6032.16,16219.2)">
                        <path d="M838.905,227.448L837.312,203.811" style="fill:none;stroke:black;stroke-width:0.95px;"/>
                    </g>
                </g>
                <g transform="matrix(0.0312674,-0.383911,1.72828,0.0312674,-3823.52,5693.29)">
                    <g transform="matrix(28.976,0,0,13.6567,-23045.6,1499.82)">
                        <path d="M860.324,260.356L861.708,255.223L847.209,243.831L842.115,246.269L840.513,251.123L855.012,262.515L860.324,260.356Z" style="fill:none;stroke:black;stroke-width:2.56px;"/>
                        <path d="M860.324,260.356L861.708,255.223L847.209,243.831L842.115,246.269L840.513,251.123L855.012,262.515L860.324,260.356Z" style="fill:rgb(136,46,45);"/>
                    </g>
                    <g transform="matrix(1.69095,-13.6335,28.9266,0.796965,-6032.16,16219.2)">
                        <path d="M832,225L845,206" style="fill:none;stroke:black;stroke-width:1.16px;"/>
                    </g>
                </g>
                <g transform="matrix(0.789776,-0.0951293,0.42825,0.789776,2954.45,1014.79)">
                    <g transform="matrix(28.976,0,0,13.6567,-23045.6,1499.82)">
                        <path d="M860.324,260.356L861.708,255.223L847.209,243.831L842.115,246.269L840.513,251.123L855.012,262.515L860.324,260.356Z" style="fill:none;stroke:black;stroke-width:2.56px;"/>
                        <path d="M860.324,260.356L861.708,255.223L847.209,243.831L842.115,246.269L840.513,251.123L855.012,262.515L860.324,260.356Z" style="fill:rgb(136,46,45);"/>
                    </g>
                    <g transform="matrix(1.69095,-13.6335,28.9266,0.796965,-6032.16,16219.2)">
                        <path d="M832,225L845,206" style="fill:none;stroke:black;stroke-width:1.16px;"/>
                    </g>
                </g>
                <g transform="matrix(0.0100886,-0.402558,1.81222,0.0100886,-1262.38,6262.91)">
                    <g transform="matrix(28.976,0,0,13.6567,-23045.6,1499.82)">
                        <path d="M860.324,260.356L861.708,255.223L847.209,243.831L842.115,246.269L840.513,251.123L855.012,262.515L860.324,260.356Z" style="fill:none;stroke:black;stroke-width:2.44px;"/>
                        <path d="M860.324,260.356L861.708,255.223L847.209,243.831L842.115,246.269L840.513,251.123L855.012,262.515L860.324,260.356Z" style="fill:rgb(136,46,45);"/>
                    </g>
                    <g transform="matrix(1.69095,-13.6335,28.9266,0.796965,-6032.16,16219.2)">
                        <path d="M832,225L845,206" style="fill:none;stroke:black;stroke-width:1.11px;"/>
                    </g>
                </g>
                <g transform="matrix(-0.214295,-0.252086,1.13483,-0.214295,1179.96,7041.51)">
                    <g transform="matrix(28.976,0,0,13.6567,-23045.6,1499.82)">
                        <path d="M860.324,260.356L861.708,255.223L847.209,243.831L842.115,246.269L840.513,251.123L855.012,262.515L860.324,260.356Z" style="fill:none;stroke:black;stroke-width:3.62px;"/>
                        <path d="M860.324,260.356L861.708,255.223L847.209,243.831L842.115,246.269L840.513,251.123L855.012,262.515L860.324,260.356Z" style="fill:rgb(136,46,45);"/>
                    </g>
                    <g transform="matrix(1.69095,-13.6335,28.9266,0.796965,-6032.16,16219.2)">
                        <path d="M832,225L845,206" style="fill:none;stroke:black;stroke-width:1.64px;"/>
                    </g>
                </g>
                <g transform="matrix(0.72636,-0.208469,0.938481,0.72636,2931.83,1855.8)">
                    <g transform="matrix(28.976,0,0,13.6567,-23045.6,1499.82)">
                        <path d="M860.324,260.356L861.708,255.223L847.209,243.831L842.115,246.269L840.513,251.123L855.012,262.515L860.324,260.356Z" style="fill:none;stroke:black;stroke-width:2.45px;"/>
                        <path d="M860.324,260.356L861.708,255.223L847.209,243.831L842.115,246.269L840.513,251.123L855.012,262.515L860.324,260.356Z" style="fill:rgb(136,46,45);"/>
                    </g>
                    <g transform="matrix(1.69095,-13.6335,28.9266,0.796965,-6032.16,16219.2)">
                        <path d="M832,225L845,206" style="fill:none;stroke:black;stroke-width:1.11px;"/>
                    </g>
                </g>
                <g transform="matrix(1.14336,0.361245,-1.62624,1.14336,15875.3,-566.819)">
                    <g transform="matrix(28.976,0,0,13.6567,-23045.6,1499.82)">
                        <path d="M860.324,260.356L861.708,255.223L853.217,247.835L848.123,250.274L846.522,255.127L855.012,262.515L860.324,260.356Z" style="fill:none;stroke:black;stroke-width:1.51px;"/>
                        <path d="M860.324,260.356L861.708,255.223L853.217,247.835L848.123,250.274L846.522,255.127L855.012,262.515L860.324,260.356Z" style="fill:rgb(136,46,45);"/>
                    </g>
                    <g transform="matrix(1.69095,-13.6335,28.9266,0.796965,-6032.16,16219.2)">
                        <path d="M832,225L841.95,212.067" style="fill:none;stroke:black;stroke-width:0.69px;"/>
                    </g>
                </g>
                <g transform="matrix(0.479325,-0.263285,1.18525,0.479325,3385.01,3370.22)">
                    <g transform="matrix(28.976,0,0,13.6567,-23045.6,1499.82)">
                        <path d="M860.324,260.356L861.708,255.223L847.209,243.831L842.115,246.269L840.513,251.123L855.012,262.515L860.324,260.356Z" style="fill:none;stroke:black;stroke-width:2.83px;"/>
                        <path d="M860.324,260.356L861.708,255.223L847.209,243.831L842.115,246.269L840.513,251.123L855.012,262.515L860.324,260.356Z" style="fill:rgb(136,46,45);"/>
                    </g>
                    <g transform="matrix(1.69095,-13.6335,28.9266,0.796965,-6032.16,16219.2)">
                        <path d="M832,225L845,206" style="fill:none;stroke:black;stroke-width:1.29px;"/>
                    </g>
                </g>
                <g transform="matrix(0.401483,-0.290773,1.309,0.401483,3727.84,3708.53)">
                    <g transform="matrix(28.976,0,0,13.6567,-23045.6,1499.82)">
                        <path d="M860.324,260.356L861.708,255.223L847.209,243.831L842.115,246.269L840.513,251.123L855.012,262.515L860.324,260.356Z" style="fill:none;stroke:black;stroke-width:2.83px;"/>
                        <path d="M860.324,260.356L861.708,255.223L847.209,243.831L842.115,246.269L840.513,251.123L855.012,262.515L860.324,260.356Z" style="fill:rgb(136,46,45);"/>
                    </g>
                    <g transform="matrix(1.69095,-13.6335,28.9266,0.796965,-6032.16,16219.2)">
                        <path d="M832,225L845,206" style="fill:none;stroke:black;stroke-width:1.29px;"/>
                    </g>
                </g>
                <g transform="matrix(0.393176,0.0518149,-0.233259,0.393176,12353,3346.34)">
                    <g transform="matrix(40.7577,8.04246e-16,0,19.5462,-33010.5,-46.2491)">
                        <path d="M860.324,260.356L861.708,255.223L852.494,247.594L847.4,250.033L845.799,254.886L855.012,262.515L860.324,260.356Z" style="fill:none;stroke:black;stroke-width:3.6px;"/>
                        <path d="M860.324,260.356L861.708,255.223L852.494,247.594L847.4,250.033L845.799,254.886L855.012,262.515L860.324,260.356Z" style="fill:rgb(136,46,45);"/>
                    </g>
                    <g transform="matrix(-5.40322,-16.3417,38.8131,4.57123,-2149,17622.6)">
                        <path d="M832,225L841.735,211.433" style="fill:none;stroke:black;stroke-width:2.28px;"/>
                    </g>
                </g>
                <g transform="matrix(0.203846,-0.117654,0.531072,0.204392,6572.28,4272.05)">
                    <g transform="matrix(40.7577,8.04246e-16,0,19.5462,-33010.5,-46.2491)">
                        <path d="M860.324,260.356L861.708,255.223L852.494,247.594L847.4,250.033L845.799,254.886L855.012,262.515L860.324,260.356Z" style="fill:none;stroke:black;stroke-width:4.55px;"/>
                        <path d="M860.324,260.356L861.708,255.223L852.494,247.594L847.4,250.033L845.799,254.886L855.012,262.515L860.324,260.356Z" style="fill:rgb(136,46,45);"/>
                    </g>
                    <g transform="matrix(-5.40322,-16.3417,38.8131,4.57123,-2149,17622.6)">
                        <path d="M832,225L841.735,211.433" style="fill:none;stroke:black;stroke-width:2.88px;"/>
                    </g>
                </g>
                <g transform="matrix(0.00981296,-0.151828,0.685323,0.00983923,-5487,6878.75)">
                    <g transform="matrix(82.6566,-8.24021,16.6163,36.8271,-106017,3290.48)">
                        <path d="M1232.48,313.079C1231.12,312.77 1214.89,333.495 1211.04,339.538C1209.77,341.532 1221.24,358.76 1222.41,359.096C1224.46,359.685 1265.34,354.361 1264.96,352.941C1258.98,330.692 1239.59,314.691 1232.48,313.079Z" style="fill:rgb(136,152,101);fill-opacity:0.5;"/>
                    </g>
                    <g transform="matrix(40.7577,8.04246e-16,0,19.5462,-33010.5,-46.2491)">
                        <path d="M860.324,260.356L861.708,255.223L852.494,247.594L847.4,250.033L845.799,254.886L855.012,262.515L860.324,260.356Z" style="fill:none;stroke:black;stroke-width:4.55px;"/>
                        <path d="M860.324,260.356L861.708,255.223L852.494,247.594L847.4,250.033L845.799,254.886L855.012,262.515L860.324,260.356Z" style="fill:rgb(136,46,45);"/>
                    </g>
                    <g transform="matrix(-5.40322,-16.3417,38.8131,4.57123,-2149,17622.6)">
                        <path d="M832,225L841.735,211.433" style="fill:none;stroke:black;stroke-width:2.88px;"/>
                    </g>
                </g>
                <g transform="matrix(-0.305032,-0.049036,0.22134,-0.305849,11085.1,6047.66)">
                    <g transform="matrix(40.7577,8.04246e-16,0,19.5462,-33010.5,-46.2491)">
                        <path d="M860.324,260.356L861.708,255.223L852.494,247.594L847.4,250.033L845.799,254.886L855.012,262.515L860.324,260.356Z" style="fill:none;stroke:black;stroke-width:4.55px;"/>
                        <path d="M860.324,260.356L861.708,255.223L852.494,247.594L847.4,250.033L845.799,254.886L855.012,262.515L860.324,260.356Z" style="fill:rgb(136,46,45);"/>
                    </g>
                    <g transform="matrix(-5.40322,-16.3417,38.8131,4.57123,-2149,17622.6)">
                        <path d="M832,225L841.735,211.433" style="fill:none;stroke:black;stroke-width:2.88px;"/>
                    </g>
                </g>
                <g transform="matrix(0.681423,0.132777,-0.597733,0.681423,12750.6,2256.42)">
                    <g transform="matrix(28.976,0,0,13.6567,-23045.6,1499.82)">
                        <path d="M858.652,257.937L860.491,252.862L846.79,243.657L842.115,246.269L840.329,251.685L854.112,261.458L858.652,257.937Z" style="fill:none;stroke:black;stroke-width:2.83px;"/>
                        <path d="M858.652,257.937L860.491,252.862L846.79,243.657L842.115,246.269L840.329,251.685L854.112,261.458L858.652,257.937Z" style="fill:rgb(136,46,45);"/>
                    </g>
                    <g transform="matrix(1.69095,-13.6335,28.9266,0.796965,-6032.16,16219.2)">
                        <path d="M834.064,223.577L845.279,205.545" style="fill:none;stroke:black;stroke-width:1.28px;"/>
                    </g>
                </g>
                <g transform="matrix(0.681423,0.132777,-0.597733,0.681423,13084,2492.98)">
                    <g transform="matrix(28.976,-8.04246e-16,0,13.6567,-23029.2,1500.98)">
                        <path d="M858.652,257.937L861.119,253.307L846.79,243.657L842.115,246.269L840.329,251.685L853.52,261.101L858.652,257.937Z" style="fill:none;stroke:black;stroke-width:2.83px;"/>
                        <path d="M858.652,257.937L861.119,253.307L846.79,243.657L842.115,246.269L840.329,251.685L853.52,261.101L858.652,257.937Z" style="fill:rgb(136,46,45);"/>
                    </g>
                    <g transform="matrix(1.69095,-13.6335,28.9266,0.796965,-6032.16,16219.2)">
                        <path d="M834.064,223.577L845.279,205.545" style="fill:none;stroke:black;stroke-width:1.28px;"/>
                    </g>
                </g>
                <g transform="matrix(0.681423,0.132777,-0.597733,0.681423,13409.4,2719.77)">
                    <g transform="matrix(28.976,0,0,13.6567,-23045.6,1499.82)">
                        <path d="M858.652,257.937L860.458,252.733L846.79,243.657L842.115,246.269L840.329,251.685L853.084,261.069L858.652,257.937Z" style="fill:none;stroke:black;stroke-width:2.83px;"/>
                        <path d="M858.652,257.937L860.458,252.733L846.79,243.657L842.115,246.269L840.329,251.685L853.084,261.069L858.652,257.937Z" style="fill:rgb(136,46,45);"/>
                    </g>
                    <g transform="matrix(1.69095,-13.6335,28.9266,0.796965,-6032.16,16219.2)">
                        <path d="M834.064,223.577L845.279,205.545" style="fill:none;stroke:black;stroke-width:1.28px;"/>
                    </g>
                </g>
                <g transform="matrix(-0.54785,-0.283901,1.27806,-0.54785,7977.79,8626.12)">
                    <g transform="matrix(28.976,0,0,13.6567,-23045.6,1499.82)">
                        <path d="M860.324,260.356L861.708,255.223L847.209,243.831L842.115,246.269L840.513,251.123L855.012,262.515L860.324,260.356Z" style="fill:none;stroke:black;stroke-width:2.56px;"/>
                        <path d="M860.324,260.356L861.708,255.223L847.209,243.831L842.115,246.269L840.513,251.123L855.012,262.515L860.324,260.356Z" style="fill:rgb(136,46,45);"/>
                    </g>
                    <g transform="matrix(1.69095,-13.6335,28.9266,0.796965,-6032.16,16219.2)">
                        <path d="M832,225L845,206" style="fill:none;stroke:black;stroke-width:1.16px;"/>
                    </g>
                </g>
                <g transform="matrix(0.705158,0.0994923,-0.447891,0.705158,14305,2721.98)">
                    <g transform="matrix(28.976,0,0,13.6567,-23045.6,1499.82)">
                        <path d="M860.324,260.356L861.708,255.223L847.209,243.831L842.115,246.269L840.513,251.123L845.627,254.829L842.563,259.166L843.943,262.23L847.769,262.881L850.921,259.158L855.012,262.515L860.324,260.356Z" style="fill:none;stroke:black;stroke-width:2.83px;"/>
                        <path d="M860.324,260.356L861.708,255.223L847.209,243.831L842.115,246.269L840.513,251.123L845.627,254.829L842.563,259.166L843.943,262.23L847.769,262.881L850.921,259.158L855.012,262.515L860.324,260.356Z" style="fill:rgb(136,46,45);"/>
                    </g>
                    <g transform="matrix(1.69095,-13.6335,28.9266,0.796965,-6032.16,16219.2)">
                        <path d="M832,225L845,206" style="fill:none;stroke:black;stroke-width:1.29px;"/>
                    </g>
                    <g transform="matrix(37.7119,-5.32085,11.2894,17.7741,-49621.5,5268.04)">
                        <path d="M1244.2,362.495L1251.63,357.169" style="fill:none;stroke:black;stroke-width:0.95px;"/>
                    </g>
                </g>
                <g transform="matrix(-0.911416,-0.45186,1.96949,-0.882435,3527.93,17147.5)">
                    <g transform="matrix(28.976,0,0,13.6567,-23045.6,1499.82)">
                        <path d="M861.956,257.432L864.841,251.202L848.096,239.396L843.032,245.305L840.842,250.173L846.017,253.937L844.78,256.11L846.16,259.174L849.986,259.825L851.542,258.142L856.698,261.708L861.956,257.432Z" style="fill:none;stroke:black;stroke-width:1.6px;"/>
                        <path d="M861.956,257.432L864.841,251.202L848.096,239.396L843.032,245.305L840.842,250.173L846.017,253.937L844.78,256.11L846.16,259.174L849.986,259.825L851.542,258.142L856.698,261.708L861.956,257.432Z" style="fill:rgb(136,46,45);"/>
                    </g>
                    <g transform="matrix(1.69095,-13.6335,28.9266,0.796965,-6032.16,16219.2)">
                        <path d="M834.843,226.532L840.158,216.71L846.328,206.296" style="fill:none;stroke:black;stroke-width:0.73px;"/>
                    </g>
                    <g transform="matrix(37.7119,-5.32085,11.2894,17.7741,-49621.5,5268.04)">
                        <path d="M1246.71,360.709L1252.63,356.219" style="fill:none;stroke:black;stroke-width:0.53px;"/>
                    </g>
                </g>
                <g transform="matrix(0.525058,0.243136,-1.09454,0.525058,17950.4,2072.1)">
                    <g transform="matrix(28.976,0,0,13.6567,-23045.6,1499.82)">
                        <path d="M860.324,260.356L861.708,255.223L847.209,243.831L842.115,246.269L840.513,251.123L845.627,254.829L842.563,259.166L843.943,262.23L847.769,262.881L850.921,259.158L855.012,262.515L860.324,260.356Z" style="fill:none;stroke:black;stroke-width:2.83px;"/>
                        <path d="M860.324,260.356L861.708,255.223L847.209,243.831L842.115,246.269L840.513,251.123L845.627,254.829L842.563,259.166L843.943,262.23L847.769,262.881L850.921,259.158L855.012,262.515L860.324,260.356Z" style="fill:rgb(136,46,45);"/>
                    </g>
                    <g transform="matrix(1.69095,-13.6335,28.9266,0.796965,-6032.16,16219.2)">
                        <path d="M832,225L845,206" style="fill:none;stroke:black;stroke-width:1.29px;"/>
                    </g>
                </g>
                <g transform="matrix(0.732053,-0.0362269,0.163085,0.732053,11688.5,2981.37)">
                    <g transform="matrix(28.976,0,0,13.6567,-23045.6,1499.82)">
                        <path d="M860.324,260.356L861.708,255.223L847.209,243.831L842.115,246.269L840.513,251.123L855.012,262.515L860.324,260.356Z" style="fill:none;stroke:black;stroke-width:2.83px;"/>
                        <path d="M860.324,260.356L861.708,255.223L847.209,243.831L842.115,246.269L840.513,251.123L855.012,262.515L860.324,260.356Z" style="fill:rgb(136,46,45);"/>
                    </g>
                    <g transform="matrix(1.69095,-13.6335,28.9266,0.796965,-6032.16,16219.2)">
                        <path d="M832,225L845,206" style="fill:none;stroke:black;stroke-width:1.29px;"/>
                    </g>
                </g>
                <g transform="matrix(0.731157,0.040045,-0.180273,0.731157,12929.2,2934.47)">
                    <g transform="matrix(28.976,0,0,13.6567,-23045.6,1499.82)">
                        <path d="M860.324,260.356L861.708,255.223L847.209,243.831L842.115,246.269L840.513,251.123L855.012,262.515L860.324,260.356Z" style="fill:none;stroke:black;stroke-width:2.83px;"/>
                        <path d="M860.324,260.356L861.708,255.223L847.209,243.831L842.115,246.269L840.513,251.123L855.012,262.515L860.324,260.356Z" style="fill:rgb(136,46,45);"/>
                    </g>
                    <g transform="matrix(1.69095,-13.6335,28.9266,0.796965,-6032.16,16219.2)">
                        <path d="M832,225L845,206" style="fill:none;stroke:black;stroke-width:1.29px;"/>
                    </g>
                </g>
                <g transform="matrix(0.505562,-0.415378,1.86993,0.505562,2671.13,2933.03)">
                    <g transform="matrix(28.976,0,0,13.6567,-23045.6,1499.82)">
                        <path d="M860.324,260.356L863.587,252.527L849.088,241.135L842.115,246.269L839.71,254.457L854.209,265.849L860.324,260.356Z" style="fill:none;stroke:black;stroke-width:2.05px;"/>
                        <path d="M860.324,260.356L863.587,252.527L849.088,241.135L842.115,246.269L839.71,254.457L854.209,265.849L860.324,260.356Z" style="fill:rgb(136,46,45);"/>
                    </g>
                    <g transform="matrix(1.69095,-13.6335,28.9266,0.796965,-6032.16,16219.2)">
                        <path d="M832,225L845,206" style="fill:none;stroke:black;stroke-width:0.93px;"/>
                    </g>
                </g>
                <g transform="matrix(0.479325,-0.263285,1.18525,0.479325,2535.13,3455.17)">
                    <g transform="matrix(28.976,0,0,13.6567,-23045.6,1499.82)">
                        <path d="M860.324,260.356L861.708,255.223L847.209,243.831L842.115,246.269L840.513,251.123L855.012,262.515L860.324,260.356Z" style="fill:none;stroke:black;stroke-width:2.83px;"/>
                        <path d="M860.324,260.356L861.708,255.223L847.209,243.831L842.115,246.269L840.513,251.123L855.012,262.515L860.324,260.356Z" style="fill:rgb(136,46,45);"/>
                    </g>
                    <g transform="matrix(1.69095,-13.6335,28.9266,0.796965,-6032.16,16219.2)">
                        <path d="M832,225L845,206" style="fill:none;stroke:black;stroke-width:1.29px;"/>
                    </g>
                </g>
                <g transform="matrix(0.752985,-0.302199,1.36043,0.752985,797.392,2582.71)">
                    <g transform="matrix(28.976,0,0,13.6567,-23045.6,1499.82)">
                        <path d="M862.307,258.047L863.798,252.212L849.299,240.82L843.722,243.759L840.513,251.123L855.012,262.515L862.307,258.047Z" style="fill:none;stroke:black;stroke-width:2.11px;"/>
                        <path d="M862.307,258.047L863.798,252.212L849.299,240.82L843.722,243.759L840.513,251.123L855.012,262.515L862.307,258.047Z" style="fill:rgb(136,46,45);"/>
                    </g>
                    <g transform="matrix(1.69095,-13.6335,28.9266,0.796965,-5983.9,16183.9)">
                        <path d="M831.748,225.333L840.135,213.11L845,206" style="fill:none;stroke:black;stroke-width:0.96px;"/>
                    </g>
                </g>
                <g transform="matrix(0.0829265,-0.464483,2.09099,0.0829265,-764.09,7023.32)">
                    <g transform="matrix(28.976,0,0,13.6567,-23045.6,1499.82)">
                        <path d="M868.555,260.509L870.476,247.156L841.82,220.141L832.253,227.034L828.233,239.549L854.704,264.718L868.555,260.509Z" style="fill:none;stroke:black;stroke-width:2.11px;"/>
                        <path d="M868.555,260.509L870.476,247.156L841.82,220.141L832.253,227.034L828.233,239.549L854.704,264.718L868.555,260.509Z" style="fill:rgb(136,46,45);"/>
                    </g>
                    <g transform="matrix(1.69095,-13.6335,28.9266,0.796965,-5983.9,16183.9)">
                        <path d="M829.656,231.714L860.955,193.521" style="fill:none;stroke:black;stroke-width:0.96px;"/>
                    </g>
                </g>
                <g transform="matrix(-0.746487,-0.305759,1.37646,-0.746487,-4746.55,12662.4)">
                    <g transform="matrix(28.976,0,0,13.6567,-23045.6,1499.82)">
                        <path d="M865.687,257.887L871.194,247.982L842.179,221.324L833.733,228.439L825.84,237.765L855.833,265.284L865.687,257.887Z" style="fill:none;stroke:black;stroke-width:2.11px;"/>
                        <path d="M865.687,257.887L871.194,247.982L842.179,221.324L833.733,228.439L825.84,237.765L855.833,265.284L865.687,257.887Z" style="fill:rgb(136,46,45);"/>
                    </g>
                    <g transform="matrix(1.69095,-13.6335,28.9266,0.796965,-5983.9,16183.9)">
                        <path d="M831.982,228.829L859.81,194.911" style="fill:none;stroke:black;stroke-width:0.96px;"/>
                    </g>
                </g>
                <g>
                    <g transform="matrix(39.7235,0,0,18.9673,-34042.2,-1610.05)">
                        <path d="M1011.02,597.733L1017.05,601.67L1014.75,608.039L1007.29,608.039L1004.98,601.67L1011.02,597.733Z" style="fill:none;stroke:black;stroke-width:0.6px;"/>
                        <path d="M1011.02,597.733L1017.05,601.67L1014.75,608.039L1007.29,608.039L1004.98,601.67L1011.02,597.733Z" style="fill:rgb(106,43,14);fill-opacity:0.77;"/>
                    </g>
                    <g transform="matrix(30.8999,-2.04248,-4.23681,18.2294,-22490.3,879.799)">
                        <path d="M1006.58,606.989L1020.07,566.469" style="fill:none;stroke:black;stroke-width:0.79px;"/>
                    </g>
                </g>
            </g>
        </g>
    </g>
</svg>
